<svg width="188" height="551" viewBox="0 0 188 551" fill="none" xmlns="http://www.w3.org/2000/svg">
<mask id="path-1-inside-1_0_4" fill="white">
<path d="M187.804 272.709C187.808 272.536 187.815 272.363 187.816 272.191C187.853 269.862 188.096 267.522 187.956 265.205C187.449 256.782 186.191 248.351 186.377 239.949C186.7 225.227 184.844 210.982 179.828 197.141C179.442 196.072 179.116 194.866 179.207 193.759C180.449 178.502 178.025 163.753 173.483 149.225C172.393 145.74 171.828 141.991 171.657 138.334C171.16 127.704 170.203 117.203 165.327 107.505C161.2 99.2981 155.079 93.1689 145.902 91.1334C140.456 89.9251 135.606 87.7724 130.965 84.8364C126.812 82.2116 122.662 79.5413 118.306 77.2873C113.705 74.9073 110.824 71.4344 109.819 66.5696C111.168 64.7352 112.937 63.1264 113.703 61.1346C115.113 57.4676 116.404 53.7481 117.604 50.0007C124.38 48.4898 125.97 36.9974 122.61 33.855C120.89 32.2462 119.433 32.4526 118.362 33.1241C119.366 30.0324 120.568 25.4123 120.271 21.6701C119.777 15.4553 118.002 12.1013 115.337 8.25593C112.673 4.41055 107.542 4.50672 107.542 4.50672C107.542 4.50672 105.273 0.757537 95.0087 0.0685524C84.7465 -0.622181 72.5091 3.91567 69.1537 13.2869C65.8018 22.6494 67.5477 29.0619 68.5467 33.3007C68.5467 33.3042 68.5467 33.3077 68.5467 33.3112C67.4567 32.4998 65.8928 32.1063 64.0209 33.8568C60.6217 37.0359 62.2819 48.7574 69.2517 50.0567C70.0022 52.5555 70.9941 54.9985 72.0613 57.3819C73.2544 60.0469 74.7239 62.5878 76.0535 65.1916C76.3981 65.8666 77.0804 66.692 76.9195 67.2515C75.9083 70.7542 74.6662 74.019 71.1236 76.0614C65.3889 79.3682 59.9482 83.1804 54.2345 86.5274C51.5963 88.0732 48.7185 89.5998 45.7655 90.1507C31.8207 92.7475 24.1319 101.743 20.005 114.54C17.2181 123.18 16.6338 132.121 16.5516 141.132C16.5341 143.01 16.2595 144.977 15.6384 146.742C10.2834 161.948 7.72745 177.528 8.94855 193.67C9.03953 194.878 8.68264 196.191 8.26278 197.358C5.06481 206.252 2.83078 215.373 2.25871 224.812C1.48546 237.599 0.960626 250.401 0.32733 263.198C0.211867 265.539 -0.0400557 267.882 0.00542971 270.219C0.0176758 270.853 0.0421658 271.486 0.0579107 272.121H0.190868L0.000184281 280.003C0.000184281 280.003 0.232857 295.716 1.21954 300.032C2.20622 304.348 5.65962 310.545 5.65962 310.545C5.65962 310.545 9.60634 315.636 11.7774 317.075C13.9484 318.514 17.2042 320.284 16.3172 317.075C15.4775 314.041 10.5003 310.12 9.45589 307.363C11.2928 308.064 14.6307 309.337 15.4775 309.655C16.6618 310.099 16.7108 308.62 16.7108 308.62C15.8011 305.764 11.1861 302.959 8.12807 301.37C7.80618 299.119 7.7292 296.528 8.42198 293.782C9.80403 288.305 11.382 285.981 13.9485 286.092C16.5149 286.202 17.2042 291.404 20.166 293.174C23.1278 294.943 23.915 292.289 23.915 292.289C21.1526 289.412 22.1393 282.44 21.2506 278.345C20.5036 274.902 18.2608 272.73 17.5593 272.121C17.5173 270.77 17.6608 269.407 18.1069 267.944C22.7464 252.741 27.5661 237.565 31.3659 222.145C33.229 214.581 33.4127 206.51 33.5544 198.655C33.6104 195.53 33.6559 192.65 34.7038 189.69C37.23 182.545 39.5567 175.331 41.9744 168.148C42.2229 167.41 42.5308 166.691 42.8124 165.963C43.1518 165.986 43.493 166.009 43.8323 166.032C44.9992 181.565 46.4058 197.085 47.2333 212.636C47.6391 220.283 47.5027 228.042 46.6874 235.651C44.8208 253.062 41.6525 270.359 40.365 287.8C38.7082 310.225 42.2876 332.446 46.9516 354.273C49.8137 367.668 51.5911 380.977 51.4004 394.573C51.3444 398.55 50.251 402.523 49.5198 406.477C48.8217 410.249 47.6829 413.959 47.2402 417.754C45.5101 432.632 47.6636 447.249 51.5211 461.524C54.7996 473.658 59.0385 485.54 63.0937 497.452C65.0408 503.172 67.0229 508.833 67.371 514.798C67.3693 514.805 65.1387 520.567 64.8763 524.903C64.6139 529.244 51.1922 538.713 49.3501 543.842C47.5079 548.971 50.4032 550.074 50.4032 550.074C50.4032 550.074 80.2714 550.074 83.6915 550.074C87.1134 550.074 88.9538 547.524 88.9538 543.315C88.9538 539.279 85.2748 516.251 84.9739 514.369C83.4274 494.599 82.8816 474.826 85.6422 455.087C87.7467 440.045 86.0883 425.233 82.7941 410.551C81.44 404.518 81.9386 398.784 83.8035 392.905C85.3028 388.177 86.4854 383.226 86.9035 378.297C89.0921 352.421 90.9902 326.523 92.9968 300.632C93.2435 297.444 93.5269 294.258 93.7945 291.072C94.4628 291.595 94.5748 292.09 94.6133 292.59C96.6199 319.016 98.5495 345.447 100.666 371.865C101.226 378.849 101.17 385.951 104.111 392.606C106.698 398.464 106.719 404.544 105.32 410.812C102.141 425.065 100.498 439.459 102.405 454.081C103.039 458.938 103.887 463.808 103.975 468.685C104.247 483.881 104.853 499.086 103.324 514.231L103.264 514.229C103.264 514.229 99.2615 539.103 99.2615 543.312C99.2615 547.521 101.104 550.071 104.524 550.071C107.946 550.071 137.812 550.071 137.812 550.071C137.812 550.071 140.707 548.967 138.865 543.838C137.023 538.709 123.603 529.24 123.339 524.9C123.077 520.56 120.843 514.792 120.843 514.792L120.72 514.789C120.972 508.836 122.896 503.139 125.144 497.528C130.597 483.914 135.101 470.017 138.092 455.667C141.026 441.594 142.954 427.41 140.263 413.048C139.304 407.937 137.172 402.936 136.93 397.821C136.236 383.05 138.353 368.595 141.236 354C146.108 329.323 150.553 304.4 146.804 278.948C145.233 268.278 144.185 257.528 143.043 246.8C142.107 238.001 140.679 229.173 140.739 220.367C140.816 208.637 141.997 196.903 142.955 185.19C143.44 179.257 144.478 173.367 145.265 167.459C148.895 176.293 151.909 185.063 154.881 193.846C155.077 194.423 154.976 195.105 154.99 195.738C155.123 202.32 154.551 209.007 155.515 215.464C158.223 233.589 164.124 250.901 169.979 268.208C170.436 269.558 170.716 271.184 170.667 272.711C170.667 272.711 167.637 275.035 166.748 279.128C165.859 283.222 166.846 290.194 164.083 293.072C164.083 293.072 164.872 295.729 167.834 293.957C170.794 292.186 171.485 286.985 174.052 286.875C176.618 286.765 178.196 289.089 179.578 294.566C180.271 297.311 180.194 299.901 179.872 302.153C176.814 303.743 172.197 306.548 171.289 309.403C171.289 309.403 171.338 310.883 172.523 310.439C173.369 310.12 176.707 308.847 178.544 308.146C177.502 310.904 172.523 314.824 171.683 317.858C170.794 321.067 174.052 319.298 176.223 317.858C178.394 316.419 182.341 311.329 182.341 311.329C182.341 311.329 185.794 305.131 186.781 300.816C187.767 296.5 188 280.786 188 280.786L187.804 272.709Z"/>
</mask>
<path d="M187.804 272.709C187.808 272.536 187.815 272.363 187.816 272.191C187.853 269.862 188.096 267.522 187.956 265.205C187.449 256.782 186.191 248.351 186.377 239.949C186.7 225.227 184.844 210.982 179.828 197.141C179.442 196.072 179.116 194.866 179.207 193.759C180.449 178.502 178.025 163.753 173.483 149.225C172.393 145.74 171.828 141.991 171.657 138.334C171.16 127.704 170.203 117.203 165.327 107.505C161.2 99.2981 155.079 93.1689 145.902 91.1334C140.456 89.9251 135.606 87.7724 130.965 84.8364C126.812 82.2116 122.662 79.5413 118.306 77.2873C113.705 74.9073 110.824 71.4344 109.819 66.5696C111.168 64.7352 112.937 63.1264 113.703 61.1346C115.113 57.4676 116.404 53.7481 117.604 50.0007C124.38 48.4898 125.97 36.9974 122.61 33.855C120.89 32.2462 119.433 32.4526 118.362 33.1241C119.366 30.0324 120.568 25.4123 120.271 21.6701C119.777 15.4553 118.002 12.1013 115.337 8.25593C112.673 4.41055 107.542 4.50672 107.542 4.50672C107.542 4.50672 105.273 0.757537 95.0087 0.0685524C84.7465 -0.622181 72.5091 3.91567 69.1537 13.2869C65.8018 22.6494 67.5477 29.0619 68.5467 33.3007C68.5467 33.3042 68.5467 33.3077 68.5467 33.3112C67.4567 32.4998 65.8928 32.1063 64.0209 33.8568C60.6217 37.0359 62.2819 48.7574 69.2517 50.0567C70.0022 52.5555 70.9941 54.9985 72.0613 57.3819C73.2544 60.0469 74.7239 62.5878 76.0535 65.1916C76.3981 65.8666 77.0804 66.692 76.9195 67.2515C75.9083 70.7542 74.6662 74.019 71.1236 76.0614C65.3889 79.3682 59.9482 83.1804 54.2345 86.5274C51.5963 88.0732 48.7185 89.5998 45.7655 90.1507C31.8207 92.7475 24.1319 101.743 20.005 114.54C17.2181 123.18 16.6338 132.121 16.5516 141.132C16.5341 143.01 16.2595 144.977 15.6384 146.742C10.2834 161.948 7.72745 177.528 8.94855 193.67C9.03953 194.878 8.68264 196.191 8.26278 197.358C5.06481 206.252 2.83078 215.373 2.25871 224.812C1.48546 237.599 0.960626 250.401 0.32733 263.198C0.211867 265.539 -0.0400557 267.882 0.00542971 270.219C0.0176758 270.853 0.0421658 271.486 0.0579107 272.121H0.190868L0.000184281 280.003C0.000184281 280.003 0.232857 295.716 1.21954 300.032C2.20622 304.348 5.65962 310.545 5.65962 310.545C5.65962 310.545 9.60634 315.636 11.7774 317.075C13.9484 318.514 17.2042 320.284 16.3172 317.075C15.4775 314.041 10.5003 310.12 9.45589 307.363C11.2928 308.064 14.6307 309.337 15.4775 309.655C16.6618 310.099 16.7108 308.62 16.7108 308.62C15.8011 305.764 11.1861 302.959 8.12807 301.37C7.80618 299.119 7.7292 296.528 8.42198 293.782C9.80403 288.305 11.382 285.981 13.9485 286.092C16.5149 286.202 17.2042 291.404 20.166 293.174C23.1278 294.943 23.915 292.289 23.915 292.289C21.1526 289.412 22.1393 282.44 21.2506 278.345C20.5036 274.902 18.2608 272.73 17.5593 272.121C17.5173 270.77 17.6608 269.407 18.1069 267.944C22.7464 252.741 27.5661 237.565 31.3659 222.145C33.229 214.581 33.4127 206.51 33.5544 198.655C33.6104 195.53 33.6559 192.65 34.7038 189.69C37.23 182.545 39.5567 175.331 41.9744 168.148C42.2229 167.41 42.5308 166.691 42.8124 165.963C43.1518 165.986 43.493 166.009 43.8323 166.032C44.9992 181.565 46.4058 197.085 47.2333 212.636C47.6391 220.283 47.5027 228.042 46.6874 235.651C44.8208 253.062 41.6525 270.359 40.365 287.8C38.7082 310.225 42.2876 332.446 46.9516 354.273C49.8137 367.668 51.5911 380.977 51.4004 394.573C51.3444 398.55 50.251 402.523 49.5198 406.477C48.8217 410.249 47.6829 413.959 47.2402 417.754C45.5101 432.632 47.6636 447.249 51.5211 461.524C54.7996 473.658 59.0385 485.54 63.0937 497.452C65.0408 503.172 67.0229 508.833 67.371 514.798C67.3693 514.805 65.1387 520.567 64.8763 524.903C64.6139 529.244 51.1922 538.713 49.3501 543.842C47.5079 548.971 50.4032 550.074 50.4032 550.074C50.4032 550.074 80.2714 550.074 83.6915 550.074C87.1134 550.074 88.9538 547.524 88.9538 543.315C88.9538 539.279 85.2748 516.251 84.9739 514.369C83.4274 494.599 82.8816 474.826 85.6422 455.087C87.7467 440.045 86.0883 425.233 82.7941 410.551C81.44 404.518 81.9386 398.784 83.8035 392.905C85.3028 388.177 86.4854 383.226 86.9035 378.297C89.0921 352.421 90.9902 326.523 92.9968 300.632C93.2435 297.444 93.5269 294.258 93.7945 291.072C94.4628 291.595 94.5748 292.09 94.6133 292.59C96.6199 319.016 98.5495 345.447 100.666 371.865C101.226 378.849 101.17 385.951 104.111 392.606C106.698 398.464 106.719 404.544 105.32 410.812C102.141 425.065 100.498 439.459 102.405 454.081C103.039 458.938 103.887 463.808 103.975 468.685C104.247 483.881 104.853 499.086 103.324 514.231L103.264 514.229C103.264 514.229 99.2615 539.103 99.2615 543.312C99.2615 547.521 101.104 550.071 104.524 550.071C107.946 550.071 137.812 550.071 137.812 550.071C137.812 550.071 140.707 548.967 138.865 543.838C137.023 538.709 123.603 529.24 123.339 524.9C123.077 520.56 120.843 514.792 120.843 514.792L120.72 514.789C120.972 508.836 122.896 503.139 125.144 497.528C130.597 483.914 135.101 470.017 138.092 455.667C141.026 441.594 142.954 427.41 140.263 413.048C139.304 407.937 137.172 402.936 136.93 397.821C136.236 383.05 138.353 368.595 141.236 354C146.108 329.323 150.553 304.4 146.804 278.948C145.233 268.278 144.185 257.528 143.043 246.8C142.107 238.001 140.679 229.173 140.739 220.367C140.816 208.637 141.997 196.903 142.955 185.19C143.44 179.257 144.478 173.367 145.265 167.459C148.895 176.293 151.909 185.063 154.881 193.846C155.077 194.423 154.976 195.105 154.99 195.738C155.123 202.32 154.551 209.007 155.515 215.464C158.223 233.589 164.124 250.901 169.979 268.208C170.436 269.558 170.716 271.184 170.667 272.711C170.667 272.711 167.637 275.035 166.748 279.128C165.859 283.222 166.846 290.194 164.083 293.072C164.083 293.072 164.872 295.729 167.834 293.957C170.794 292.186 171.485 286.985 174.052 286.875C176.618 286.765 178.196 289.089 179.578 294.566C180.271 297.311 180.194 299.901 179.872 302.153C176.814 303.743 172.197 306.548 171.289 309.403C171.289 309.403 171.338 310.883 172.523 310.439C173.369 310.12 176.707 308.847 178.544 308.146C177.502 310.904 172.523 314.824 171.683 317.858C170.794 321.067 174.052 319.298 176.223 317.858C178.394 316.419 182.341 311.329 182.341 311.329C182.341 311.329 185.794 305.131 186.781 300.816C187.767 296.5 188 280.786 188 280.786L187.804 272.709Z" stroke="#617AFA" stroke-width="4.64198" mask="url(#path-1-inside-1_0_4)"/>
</svg>
